<svg width="14" height="14" fill="none" xmlns="http://www.w3.org/2000/svg"><path fill-rule="evenodd" clip-rule="evenodd" d="M7 0C5.099 0 4.86.008 4.114.042c-.745.034-1.254.152-1.7.326a3.43 3.43 0 00-1.24.807c-.388.389-.628.78-.806 1.24-.174.445-.292.954-.326 1.699C.008 4.86 0 5.099 0 7c0 1.901.008 2.14.042 2.886.034.745.152 1.254.326 1.7.178.46.418.85.807 1.24.389.388.78.628 1.24.806.445.174.954.292 1.699.326.747.034.985.042 2.886.042 1.901 0 2.14-.008 2.886-.042.745-.034 1.254-.152 1.7-.325a3.43 3.43 0 001.24-.808c.388-.389.628-.78.806-1.24.174-.445.292-.954.326-1.699C13.992 9.14 14 8.901 14 7c0-1.901-.008-2.14-.042-2.886-.034-.745-.152-1.254-.325-1.7a3.431 3.431 0 00-.808-1.24 3.43 3.43 0 00-1.24-.806C11.14.194 10.631.076 9.886.042 9.14.008 8.901 0 7 0zm0 1.261c1.87 0 2.09.007 2.829.041.682.031 1.053.145 1.3.241.326.127.56.279.804.524.245.245.397.478.524.805.096.246.21.617.24 1.3.035.738.042.959.042 2.828 0 1.87-.007 2.09-.041 2.829-.031.682-.145 1.053-.241 1.3a2.17 2.17 0 01-.524.804 2.17 2.17 0 01-.805.524c-.246.096-.617.21-1.3.24-.737.035-.959.042-2.828.042-1.87 0-2.09-.007-2.829-.041-.682-.031-1.053-.145-1.3-.241a2.17 2.17 0 01-.804-.524 2.17 2.17 0 01-.524-.805c-.096-.246-.21-.617-.24-1.3C1.267 9.09 1.26 8.87 1.26 7c0-1.87.007-2.09.041-2.829.031-.682.145-1.053.241-1.3.127-.326.279-.56.524-.804.245-.245.478-.397.805-.524.246-.096.617-.21 1.3-.24C4.91 1.267 5.13 1.26 7 1.26zm0 8.072a2.333 2.333 0 110-4.666 2.333 2.333 0 010 4.666zm0-5.928a3.595 3.595 0 100 7.19 3.595 3.595 0 000-7.19zm4.577-.142a.84.84 0 10-1.68 0 .84.84 0 001.68 0z" fill="#000"/></svg>