<svg width="18" height="13" fill="none" xmlns="http://www.w3.org/2000/svg"><path fill-rule="evenodd" clip-rule="evenodd" d="M7.142 8.846L7.14 3.689l4.864 2.588-4.863 2.569zm10.678-6.05s-.176-1.265-.715-1.822C16.42.244 15.653.24 15.3.197 12.782.01 9.004.01 9.004.01h-.008S5.218.011 2.7.197C2.347.24 1.58.243.895.974.355 1.531.18 2.796.18 2.796S0 4.28 0 5.766V7.16c0 1.485.18 2.97.18 2.97s.176 1.265.715 1.822c.685.73 1.584.707 1.985.784 1.44.141 6.12.184 6.12.184s3.782-.005 6.301-.19c.352-.044 1.12-.047 1.804-.778.54-.557.715-1.822.715-1.822S18 8.645 18 7.16V5.766c0-1.485-.18-2.97-.18-2.97z" fill="#000"/></svg>