<svg version="1.0" xmlns="http://www.w3.org/2000/svg" width="933.333" height="933.333" viewBox="0 0 700 700"><path d="M327.8.5c-.2.1-4.1.5-8.8.9-4.7.4-10.1.9-12 1.2-13.9 1.9-25.2 4-36 6.6-6.9 1.6-13.4 3.1-14.6 3.4-9.4 1.8-41.9 14.2-57.9 22-18 8.7-44.8 24.7-55.5 33.1-.8.6-5.1 4-9.5 7.4-34.2 26.6-65 62.3-87.5 101.4-4.7 8.1-17 32.7-17 33.9 0 .3-1.1 2.9-2.4 5.8-6 13.3-15.5 43.2-18.1 56.9-.3 1.3-1.1 5.8-2 9.9-2.3 11.7-3.1 16.9-4 25.5-.3 2.7-.9 8.8-1.4 13.5-.9 8.5-.7 53.8.2 59.5.3 1.6.8 5.7 1.2 9 1.5 13.8 2.6 20.6 6 36.5 2.1 9.6 9.1 33.9 11.4 39.5.5 1.1 2.5 6.5 4.6 12 8 21.3 22.3 48 37.6 70.4 5.9 8.7 21.6 28.8 26.4 33.7 19.8 20.8 29.3 29.7 44.5 41.9 9.2 7.4 37 26.5 38.6 26.5.4 0 1.5.6 2.3 1.4 2.7 2.3 26.1 14 39.7 19.9 21.3 9.1 51.6 18.2 72.4 21.8 4.1.7 7.7 1.3 8 1.4.3.1 3.2.5 6.5.9 3.3.5 6.9 1 7.9 1.2 5.9 1.1 24.6 1.9 42.6 1.9 23.1 0 34.8-.8 51.3-3.5 4-.6 8.3-1.3 9.7-1.6 19.3-3 47.3-11.1 70-20.2 47.2-18.8 94.7-52.4 129-91.1 3.6-4.1 7-7.9 7.7-8.6 2.1-2.2 20.3-26.7 21.5-28.9.6-1.1 1.4-2.3 1.7-2.6.8-.6 6.1-9.2 12.4-20 4.4-7.6 16.7-32.2 16.7-33.4 0-.3 1.1-2.9 2.4-5.8 5.7-12.7 15.1-42.1 18.2-57.3 1.7-8.1 5.4-30.1 5.9-35 .4-3.3.9-7.1 1.1-8.5.9-4.8 1.1-52.6.3-61.2-2.1-22.9-4.4-36.7-10-59-18.8-75.4-66.4-146.5-129.9-193.5-10.1-7.5-29.5-20.3-30.6-20.3-.4 0-1.5-.6-2.3-1.4-2.4-2.2-29.7-15.8-41.8-20.9-23.1-9.6-58-19.6-78.3-22.2-1.9-.3-4.6-.7-6-1-1.3-.2-5.2-.7-8.6-1.1-3.3-.3-7.4-.8-9-1-3.2-.5-54-1.4-54.6-.9zm49.2 7c4.7.4 9.6.8 11 1 1.4.2 4.8.6 7.5.9 4.4.6 12.5 1.9 19 3.1 38.5 7.2 76.8 21.8 111.4 42.4 62.7 37.3 114.1 96.6 141.5 163.4 7 16.9 15.3 43.3 18 56.7.3 1.4.7 3.4.9 4.5.2 1.1.7 3.6 1.1 5.5.3 1.9.8 4.4 1 5.5.9 5.4 1.6 9.4 2.2 14 .3 2.7.8 6.1 1 7.5 2.3 17.6 2.3 61.9 0 75-.3 1.4-.7 5-1 8-.3 3-.8 6.5-1 7.6-.2 1.2-.7 3.9-1.1 6-7.9 49.9-30.8 103.3-62.9 146.4-3.8 5.2-8 10.6-9.2 12-23.9 27.5-37.9 41-59.9 57.5-40.1 30.2-84.3 50.4-134.2 61.4-5 1.2-11.5 2.4-14.5 2.7-2.9.4-5.6.8-5.9 1-.3.2-3.2.6-6.4 1-3.2.3-6.8.8-7.9 1-11.6 2.2-59.1 2.2-75.4-.1-1.8-.2-5.2-.7-7.5-1-6.1-.8-11.9-1.7-14.2-2.1-1.1-.3-3.6-.7-5.5-1-14.4-2.3-43.7-10.9-62-18.1-14.4-5.7-44.9-20.9-51.5-25.6-.5-.4-5.2-3.4-10.2-6.7-26.5-17.1-54.7-42.3-75.9-68-39.3-47.5-64.7-103.5-74.8-165-.3-1.9-.8-5.8-1.1-8.5-.3-2.8-.8-6.1-1-7.5-2.4-12.9-2.3-58.6 0-76 .2-1.9.7-5.5 1-8 6.7-52.5 28.8-108.8 60.1-152.6C107 99 158.2 58.1 217.5 33c19.4-8.3 54-18.5 72-21.4C305.6 9 314.7 8 327 7.4c6.3-.4 11.6-.8 11.8-.9.5-.4 29.6.3 38.2 1z"/><path d="M330.9 45.4c-.2.2-4.6.7-9.7 1-5.1.4-10 .9-11 1-.9.2-3.9.7-6.5 1-5.4.8-6.8 1.1-14.2 2.6-2.7.6-5.9 1.2-7 1.4-1.1.2-5.6 1.4-10 2.5-4.4 1.2-8.8 2.3-9.7 2.6-.9.2-5.8 1.8-11 3.5-64.1 21.9-118.5 63.7-156.1 120.2-4.2 6.4-7.7 11.9-7.7 12.4 0 .4-.6 1.5-1.4 2.3-2.8 3.1-16.7 32-21.5 44.7-6.8 18.2-13.2 41.3-15.6 56.4-.4 2.5-.9 5.3-1.1 6.4-.2 1-.6 4.1-.9 7-.3 2.8-1 8.5-1.4 12.6-.9 7.7-.7 52.2.3 57.5.2 1.6.7 5.2 1 8 1.9 17.2 6.9 39.1 13.2 58.1C92.9 544.2 173.1 619.3 272.5 645c28.5 7.4 45.9 9.5 77.5 9.5 18.1 0 33.4-.7 39.5-1.9 2-.4 8.4-1.4 14-2.2 16-2.4 44.2-10.5 62.1-17.9 65.3-27.1 118.1-74 151.5-135 3.1-5.5 6.3-11.8 7.4-14 1-2.2 3.1-6.7 4.6-9.9 1.6-3.3 2.9-6.3 2.9-6.8 0-.4.9-2.7 2-5.1 1.7-3.6 7.4-20 8.6-24.6 6-22.9 9.5-41.7 11.3-59.6.9-9.6.8-49.9-.3-57.5-.3-2.5-.8-6.9-1.1-9.8-.3-3-1-7.7-1.6-10.5-.5-2.9-1.2-6.8-1.5-8.7-.8-4.8-.9-5.2-1.7-7.5-.3-1.1-.8-3.1-1.1-4.5-1.5-8.6-7.6-28-13.3-42.5C595.8 142.4 512.7 72.4 414 51.6c-9.3-1.9-22.2-4-33-5.2-6.3-.7-49.5-1.6-50.1-1z"/></svg>