<svg width="21" height="15" viewBox="0 0 21 15" fill="none" xmlns="http://www.w3.org/2000/svg">
<path d="M17.5 0H3.5C1.575 0 0 1.5 0 3.33333V11.6667C0 13.5 1.575 15 3.5 15H17.5C19.425 15 21 13.5 21 11.6667V3.33333C21 1.5 19.425 0 17.5 0ZM18.9 4.83333L11.9875 9.25C11.55 9.5 11.025 9.66667 10.5 9.66667C9.975 9.66667 9.45 9.5 9.0125 9.25L2.1 4.83333C1.75 4.58333 1.6625 4.08333 1.925 3.66667C2.1875 3.33333 2.7125 3.25 3.15 3.5L10.0625 7.91667C10.325 8.08333 10.7625 8.08333 11.025 7.91667L17.9375 3.5C18.375 3.25 18.9 3.33333 19.1625 3.75C19.3375 4.08333 19.25 4.58333 18.9 4.83333Z" fill="#7CEF94"/>
</svg>
