<svg width="14" height="14" viewBox="0 0 14 14" fill="none" xmlns="http://www.w3.org/2000/svg">
<path fill-rule="evenodd" clip-rule="evenodd" d="M13.2273 14H0.772669C0.345839 14 0 13.654 0 13.2273V0.772717C0 0.34589 0.345839 0 0.772669 0H13.2273C13.654 0 14 0.34589 14 0.772717V13.2273C14 13.654 13.654 14 13.2273 14ZM9.65974 14V8.57851H11.4796L11.752 6.46561H9.65974V5.11663C9.65974 4.5049 9.82959 4.08798 10.7069 4.08798L11.8257 4.08751V2.19776C11.6322 2.17206 10.968 2.11452 10.1954 2.11452C8.5822 2.11452 7.47786 3.09915 7.47786 4.90744V6.46561H5.65341V8.57851H7.47786V14H9.65974Z" fill="black"/>
</svg>
