<svg width="15" height="15" viewBox="0 0 15 15" fill="none" xmlns="http://www.w3.org/2000/svg">
<path d="M14.1667 10.4167C13.1292 10.4167 12.1292 10.25 11.1917 9.94167C10.9042 9.85 10.575 9.91667 10.3458 10.1458L8.5125 11.9833C6.15 10.7833 4.225 8.85417 3.02083 6.49583L4.85417 4.65833C5.08333 4.42917 5.15 4.1 5.05833 3.8125C4.75 2.875 4.58333 1.87083 4.58333 0.833333C4.58333 0.370833 4.2125 0 3.75 0H0.833333C0.370833 0 0 0.370833 0 0.833333C0 8.65833 6.34167 15 14.1667 15C14.6292 15 15 14.6292 15 14.1667V11.25C15 10.7875 14.6292 10.4167 14.1667 10.4167Z" fill="#7CEF94"/>
</svg>
