<svg width="18" height="13" viewBox="0 0 18 13" fill="none" xmlns="http://www.w3.org/2000/svg">
<path fill-rule="evenodd" clip-rule="evenodd" d="M7.14171 8.84594L7.14088 3.68926L12.0046 6.27658L7.14171 8.84594ZM17.8203 2.79593C17.8203 2.79593 17.6444 1.53121 17.1047 0.974271C16.4202 0.243298 15.653 0.239668 15.3011 0.196888C12.7823 0.0112294 9.00389 0.0112305 9.00389 0.0112305H8.99607C8.99607 0.0112305 5.21777 0.0112294 2.69885 0.196888C2.34699 0.239668 1.58004 0.243298 0.895321 0.974271C0.35563 1.53121 0.180009 2.79593 0.180009 2.79593C0.180009 2.79593 0 4.28112 0 5.7663V7.15866C0 8.64382 0.180009 10.129 0.180009 10.129C0.180009 10.129 0.35563 11.3937 0.895321 11.9507C1.58004 12.6817 2.47947 12.6585 2.88007 12.7352C4.32009 12.876 9 12.9195 9 12.9195C9 12.9195 12.7823 12.9137 15.3011 12.7281C15.653 12.6853 16.4202 12.6817 17.1047 11.9507C17.6444 11.3937 17.8203 10.129 17.8203 10.129C17.8203 10.129 18 8.64382 18 7.15866V5.7663C18 4.28112 17.8203 2.79593 17.8203 2.79593Z" fill="black"/>
</svg>
