<svg width="94" height="20" viewBox="0 0 94 20" fill="none" xmlns="http://www.w3.org/2000/svg">
<path d="M26.2858 4.09524V5.33333C25.4286 4.57143 24.4762 4 22.8572 4C19.6191 4 17.0477 6.57143 17.0477 9.80952C17.0477 13.0476 19.5239 15.619 22.8572 15.619C24.762 15.619 25.7143 14.8571 26.2858 14.2857V15.5238H28.9524V4.09524H26.2858ZM22.9524 12.9524C21.2381 12.9524 19.8096 11.5238 19.8096 9.80952C19.8096 8.09524 21.2381 6.66667 22.9524 6.66667C24.6667 6.66667 26.0953 8.09524 26.0953 9.80952C26.0953 11.5238 24.6667 12.9524 22.9524 12.9524ZM36.0953 15.619C34.5715 15.619 33.1429 15.0476 32 13.9048C29.7143 11.619 29.7143 7.90476 32 5.71429C33.1429 4.57143 34.5715 4 36.0953 4C37.6191 4 39.1429 4.57143 40.1905 5.71429C40.381 5.90476 40.5715 6.19048 40.762 6.38095L38.6667 7.90476C38.5715 7.80952 38.4762 7.61905 38.381 7.52381C37.8096 6.95238 36.9524 6.57143 36.0953 6.57143C35.2381 6.57143 34.4762 6.85714 33.8096 7.52381C32.5715 8.7619 32.5715 10.7619 33.8096 12C35.0477 13.2381 37.0477 13.2381 38.2858 12C38.381 11.9048 38.4762 11.8095 38.5715 11.7143L40.6667 13.3333C40.4762 13.5238 40.381 13.7143 40.1905 13.9048C39.0477 15.0476 37.6191 15.619 36.0953 15.619Z" fill="black"/>
<path d="M15.9045 0H13.238V15.524H15.9045V0Z" fill="black"/>
<path d="M57.1425 0H54.476V15.524H57.1425V0Z" fill="black"/>
<path d="M6 4C4.38095 4 3.42857 4.57143 2.57143 5.33333V0H0V15.5238H2.66667V14.2857C3.2381 14.8571 4.09524 15.619 6.09524 15.619C9.42857 15.619 11.9048 13.0476 11.9048 9.80952C11.8095 6.57143 9.2381 4 6 4ZM6 12.9524C4.28571 12.9524 2.85714 11.5238 2.85714 9.80952C2.85714 8.09524 4.28571 6.66667 6 6.66667C7.71429 6.66667 9.14286 8.09524 9.14286 9.80952C9.2381 11.5238 7.80952 12.9524 6 12.9524ZM64.2857 17.3333V20H75.3333L71.9048 14.4762C73.3333 13.4286 74.2857 11.7143 74.2857 9.80952C74.2857 6.57143 71.7143 4 68.4762 4C65.2381 4 62.6667 6.57143 62.6667 9.80952C62.6667 13.0476 65.2381 15.619 68.4762 15.619C68.7619 15.619 69.1429 15.619 69.4286 15.5238L70.5714 17.3333H64.2857ZM65.4286 9.80952C65.4286 8.09524 66.8571 6.66667 68.5714 6.66667C70.2857 6.66667 71.7143 8.09524 71.7143 9.80952C71.7143 11.5238 70.2857 12.9524 68.5714 12.9524C66.8571 12.9524 65.4286 11.5238 65.4286 9.80952Z" fill="black"/>
<path d="M61.5235 4.09497H58.857V15.5235H61.5235V4.09497Z" fill="black"/>
<path d="M60.1904 3.048C61.0321 3.048 61.7144 2.36568 61.7144 1.524C61.7144 0.682318 61.0321 0 60.1904 0C59.3488 0 58.6664 0.682318 58.6664 1.524C58.6664 2.36568 59.3488 3.048 60.1904 3.048Z" fill="black"/>
<path d="M75.7143 15.5238H78.381V9.04762C78.381 7.71429 79.4286 6.66667 80.7619 6.66667C82.0952 6.66667 83.1429 7.71429 83.1429 9.04762V15.5238H85.8095V9.04762C85.8095 6.28571 83.5238 4 80.7619 4C79.9048 4 79.0476 4.19048 78.381 4.57143V0H75.7143V15.5238ZM87.1429 0V10.4762C87.1429 13.2381 89.3333 15.4286 92.0952 15.5238H93.3333V12.8571H92.1905C90.8571 12.8571 89.8095 11.7143 89.8095 10.4762V6.66667H93.3333V4H89.8095V0H87.1429Z" fill="black"/>
<path d="M42.1906 15.524H44.7621V12.095L46.1906 10.762L49.7146 15.524H52.9526L48.0951 8.857L52.8571 4.095H49.1431L44.7621 8.381V0H42.1906V15.524Z" fill="black"/>
</svg>
