<svg width="109" height="109" fill="none" xmlns="http://www.w3.org/2000/svg"><rect x="7" y="7" width="95" height="95" rx="47.5" fill="#6DE786"/><path d="M38.752 72.833V82H78L65.82 63.012c5.075-3.601 8.458-9.494 8.458-16.042C74.278 35.84 65.143 27 53.64 27S33 35.84 33 46.97c0 11.131 9.135 19.97 20.64 19.97 1.014 0 2.367 0 3.383-.327l4.06 6.22H38.752zm4.06-25.863c0-5.893 5.075-10.803 11.165-10.803 6.09 0 11.166 4.91 11.166 10.803 0 5.893-5.075 10.804-11.166 10.804-6.09 0-11.165-4.91-11.165-10.804z" fill="#000"/><circle cx="54.5" cy="54.5" r="54" stroke="#C9C9C9"/></svg>