<svg width="94" height="20" fill="none" xmlns="http://www.w3.org/2000/svg"><path d="M26.286 4.095v1.238C25.429 4.571 24.476 4 22.857 4a5.772 5.772 0 00-5.81 5.81c0 3.238 2.477 5.809 5.81 5.809 1.905 0 2.857-.762 3.429-1.333v1.238h2.666V4.095h-2.666zm-3.334 8.857c-1.714 0-3.142-1.428-3.142-3.142 0-1.715 1.428-3.143 3.142-3.143 1.715 0 3.143 1.428 3.143 3.143 0 1.714-1.428 3.142-3.143 3.142zm13.143 2.667c-1.523 0-2.952-.571-4.095-1.714-2.286-2.286-2.286-6 0-8.19C33.143 4.57 34.572 4 36.095 4c1.524 0 3.048.571 4.096 1.714.19.19.38.476.571.667l-2.095 1.524c-.096-.095-.19-.286-.286-.381a3.326 3.326 0 00-2.286-.953c-.857 0-1.619.286-2.285.953a3.161 3.161 0 000 4.476 3.161 3.161 0 004.476 0l.285-.286 2.096 1.62c-.19.19-.286.38-.477.57-1.142 1.144-2.57 1.715-4.095 1.715zM15.905 0h-2.667v15.524h2.667V0zm41.237 0h-2.666v15.524h2.666V0zM6 4c-1.619 0-2.571.571-3.429 1.333V0H0v15.524h2.667v-1.238c.571.571 1.428 1.333 3.428 1.333 3.334 0 5.81-2.571 5.81-5.81C11.81 6.572 9.238 4 6 4zm0 8.952c-1.714 0-3.143-1.428-3.143-3.142 0-1.715 1.429-3.143 3.143-3.143 1.714 0 3.143 1.428 3.143 3.143.095 1.714-1.333 3.142-3.143 3.142zm58.286 4.381V20h11.047l-3.428-5.524c1.428-1.047 2.38-2.762 2.38-4.666A5.772 5.772 0 0068.477 4a5.772 5.772 0 00-5.81 5.81 5.772 5.772 0 005.81 5.809c.286 0 .667 0 .953-.095l1.142 1.81h-6.285zm1.143-7.523c0-1.715 1.428-3.143 3.142-3.143 1.715 0 3.143 1.428 3.143 3.143 0 1.714-1.428 3.142-3.143 3.142-1.714 0-3.142-1.428-3.142-3.142zm-3.906-5.715h-2.666v11.428h2.666V4.095zM60.19 3.048a1.524 1.524 0 100-3.048 1.524 1.524 0 000 3.048zm15.524 12.476h2.667V9.048a2.358 2.358 0 012.38-2.381 2.358 2.358 0 012.382 2.38v6.477h2.666V9.048C85.81 6.286 83.525 4 80.763 4c-.857 0-1.714.19-2.381.571V0h-2.667v15.524zM87.143 0v10.476c0 2.762 2.19 4.953 4.952 5.048h1.238v-2.667h-1.142c-1.334 0-2.382-1.143-2.382-2.38v-3.81h3.524V4H89.81V0h-2.667zM42.19 15.524h2.572v-3.429l1.429-1.333 3.524 4.762h3.238l-4.858-6.667 4.762-4.762h-3.714l-4.38 4.286V0H42.19v15.524z" fill="#000"/></svg>