<?xml version="1.0" standalone="no"?>
<!DOCTYPE svg PUBLIC "-//W3C//DTD SVG 20010904//EN"
 "http://www.w3.org/TR/2001/REC-SVG-20010904/DTD/svg10.dtd">
<svg version="1.0" xmlns="http://www.w3.org/2000/svg"
 width="700.000000pt" height="700.000000pt" viewBox="0 0 700.000000 700.000000"
 preserveAspectRatio="xMidYMid meet">
<metadata>
Created by potrace 1.14, written by Peter Selinger 2001-2017
</metadata>
<g transform="translate(0.000000,700.000000) scale(0.100000,-0.100000)"
fill="#000000" stroke="none">
<path d="M3278 6995 c-2 -1 -41 -5 -88 -9 -47 -4 -101 -9 -120 -12 -139 -19
-252 -40 -360 -66 -69 -16 -134 -31 -146 -34 -94 -18 -419 -142 -579 -220
-180 -87 -448 -247 -555 -331 -8 -6 -51 -40 -95 -74 -342 -266 -650 -623 -875
-1014 -47 -81 -170 -327 -170 -339 0 -3 -11 -29 -24 -58 -60 -133 -155 -432
-181 -569 -3 -13 -11 -58 -20 -99 -23 -117 -31 -169 -40 -255 -3 -27 -9 -88
-14 -135 -9 -85 -7 -538 2 -595 3 -16 8 -57 12 -90 15 -138 26 -206 60 -365
21 -96 91 -339 114 -395 5 -11 25 -65 46 -120 80 -213 223 -480 376 -704 59
-87 216 -288 264 -337 198 -208 293 -297 445 -419 92 -74 370 -265 386 -265 4
0 15 -6 23 -14 27 -23 261 -140 397 -199 213 -91 516 -182 724 -218 41 -7 77
-13 80 -14 3 -1 32 -5 65 -9 33 -5 69 -10 79 -12 59 -11 246 -19 426 -19 231
0 348 8 513 35 40 6 83 13 97 16 193 30 473 111 700 202 472 188 947 524 1290
911 36 41 70 79 77 86 21 22 203 267 215 289 6 11 14 23 17 26 8 6 61 92 124
200 44 76 167 322 167 334 0 3 11 29 24 58 57 127 151 421 182 573 17 81 54
301 59 350 4 33 9 71 11 85 9 48 11 526 3 612 -21 229 -44 367 -100 590 -188
754 -664 1465 -1299 1935 -101 75 -295 203 -306 203 -4 0 -15 6 -23 14 -24 22
-297 158 -418 209 -231 96 -580 196 -783 222 -19 3 -46 7 -60 10 -13 2 -52 7
-86 11 -33 3 -74 8 -90 10 -32 5 -540 14 -546 9z m492 -70 c47 -4 96 -8 110
-10 14 -2 48 -6 75 -9 44 -6 125 -19 190 -31 385 -72 768 -218 1114 -424 627
-373 1141 -966 1415 -1634 70 -169 153 -433 180 -567 3 -14 7 -34 9 -45 2 -11
7 -36 11 -55 3 -19 8 -44 10 -55 9 -54 16 -94 22 -140 3 -27 8 -61 10 -75 23
-176 23 -619 0 -750 -3 -14 -7 -50 -10 -80 -3 -30 -8 -65 -10 -76 -2 -12 -7
-39 -11 -60 -79 -499 -308 -1033 -629 -1464 -38 -52 -80 -106 -92 -120 -239
-275 -379 -410 -599 -575 -401 -302 -843 -504 -1342 -614 -50 -12 -115 -24
-145 -27 -29 -4 -56 -8 -59 -10 -3 -2 -32 -6 -64 -10 -32 -3 -68 -8 -79 -10
-116 -22 -591 -22 -754 1 -18 2 -52 7 -75 10 -61 8 -119 17 -142 21 -11 3 -36
7 -55 10 -144 23 -437 109 -620 181 -144 57 -449 209 -515 256 -5 4 -52 34
-102 67 -265 171 -547 423 -759 680 -393 475 -647 1035 -748 1650 -3 19 -8 58
-11 85 -3 28 -8 61 -10 75 -24 129 -23 586 0 760 2 19 7 55 10 80 67 525 288
1088 601 1526 374 524 886 933 1479 1184 194 83 540 185 720 214 161 26 252
36 375 42 63 4 116 8 118 9 5 4 296 -3 382 -10z"/>
<path d="M3309 6546 c-2 -2 -46 -7 -97 -10 -51 -4 -100 -9 -110 -10 -9 -2 -39
-7 -65 -10 -54 -8 -68 -11 -142 -26 -27 -6 -59 -12 -70 -14 -11 -2 -56 -14
-100 -25 -44 -12 -88 -23 -97 -26 -9 -2 -58 -18 -110 -35 -641 -219 -1185
-637 -1561 -1202 -42 -64 -77 -119 -77 -124 0 -4 -6 -15 -14 -23 -28 -31 -167
-320 -215 -447 -68 -182 -132 -413 -156 -564 -4 -25 -9 -53 -11 -64 -2 -10 -6
-41 -9 -70 -3 -28 -10 -85 -14 -126 -9 -77 -7 -522 3 -575 2 -16 7 -52 10 -80
19 -172 69 -391 132 -581 323 -976 1125 -1727 2119 -1984 285 -74 459 -95 775
-95 181 0 334 7 395 19 20 4 84 14 140 22 160 24 442 105 621 179 653 271
1181 740 1515 1350 31 55 63 118 74 140 10 22 31 67 46 99 16 33 29 63 29 68
0 4 9 27 20 51 17 36 74 200 86 246 60 229 95 417 113 596 9 96 8 499 -3 575
-3 25 -8 69 -11 98 -3 30 -10 77 -16 105 -5 29 -12 68 -15 87 -8 48 -9 52 -17
75 -3 11 -8 31 -11 45 -15 86 -76 280 -133 425 -375 941 -1206 1641 -2193
1849 -93 19 -222 40 -330 52 -63 7 -495 16 -501 10z"/>
</g>
</svg>
